# xmcd CD database file
#
# Track frame offsets:
#	182
#	16485
#	36162
#	57690
#	73272
#	92315
#	106007
#	113137
#	127640
#	148132
#	169720
#
# Disc length: 2539 seconds
#
# Revision: 4
# Processed by: cddbd v1.5.1PL0 Copyright (c) Steve Scherf et al.
# Submitted via: CDex 1.51
#
DISCID=9009e90b
DTITLE=U2 - Boy
DYEAR=1980
DGENRE=Rock
TTITLE0=I Will Follow
TTITLE1=Twilight
TTITLE2=An Cat Dubh
TTITLE3=Into The Heart
TTITLE4=Out Of Control
TTITLE5=Stories For Boys
TTITLE6=The Ocean
TTITLE7=A Day Without Me
TTITLE8=Another Time, Another Place
TTITLE9=The Electric Co
TTITLE10=Shadows And Tall Trees
EXTD=YEAR: 1980
EXTT0=
EXTT1=
EXTT2=
EXTT3=
EXTT4=
EXTT5=
EXTT6=
EXTT7=
EXTT8=
EXTT9=
EXTT10=
PLAYORDER=
